<?xml version="1.0" encoding="UTF-8"?>
<svg class="code" version="1.1" viewBox="0 0 1200 1200" xmlns="http://www.w3.org/2000/svg">
 <g fill="#f9ead6" fill-rule="evenodd">
  <path d="m999.66 348c-95.625 0-173.63-78.047-173.63-173.63 0-96.328 78.047-174.32 173.63-174.32 96.328 0 174.32 78.047 174.32 174.32 0 95.625-78.047 173.63-174.32 173.63zm0-314.95c-77.344 0-141.28 63.281-141.28 141.28 0 77.344 63.984 140.58 141.28 140.58 78.047 0 141.28-63.281 141.28-140.58 0-78.047-63.281-141.28-141.28-141.28z"/>
  <path d="m1007.4 1200h-907.55c-40.781 0-73.828-33.047-73.828-73.828v-1008.8c0-40.781 33.047-73.828 73.828-73.828h790.87c9.1406 0 16.172 7.7344 16.172 16.875 0 8.4375-7.0312 16.172-16.172 16.172h-790.87c-22.5 0-40.781 18.281-40.781 40.781v1008.8c0 22.5 18.281 40.781 40.781 40.781h907.55c22.5 0 41.484-18.281 41.484-40.781v-808.45c0-9.1406 7.0312-16.875 16.172-16.875s16.172 7.7344 16.172 16.875v808.45c0 40.781-33.047 73.828-73.828 73.828z"/>
  <path d="m890.68 304.4h-848.48c-9.1406 0-16.172-7.7344-16.172-16.875s7.0312-16.172 16.172-16.172h848.48c9.1406 0 16.875 7.0312 16.875 16.172s-7.7344 16.875-16.875 16.875z"/>
  <path d="m199.64 236.9c-35.156 0-63.281-28.125-63.281-62.578 0-35.156 28.125-63.281 63.281-63.281 34.453 0 63.281 28.125 63.281 63.281 0 34.453-28.828 62.578-63.281 62.578zm0-93.516c-16.875 0-30.234 14.062-30.234 30.938 0 16.172 13.359 30.234 30.234 30.234s30.234-14.062 30.234-30.234c0-16.875-13.359-30.938-30.234-30.938z"/>
  <path d="m353.63 236.9c-35.156 0-63.281-28.125-63.281-62.578 0-35.156 28.125-63.281 63.281-63.281 34.453 0 62.578 28.125 62.578 63.281 0 34.453-28.125 62.578-62.578 62.578zm0-93.516c-16.875 0-30.234 14.062-30.234 30.938 0 16.172 13.359 30.234 30.234 30.234 16.172 0 30.234-14.062 30.234-30.234 0-16.875-14.062-30.938-30.234-30.938z"/>
  <path d="m767.68 190.5h-307.22c-9.1406 0-16.172-7.7344-16.172-16.875 0-8.4375 7.0312-16.172 16.172-16.172h307.22c9.1406 0 16.172 7.7344 16.172 16.875 0 8.4375-7.0312 16.172-16.172 16.172z"/>
  <path d="m206.68 383.81c0 21.562-32.344 21.562-32.344 0s32.344-21.562 32.344 0"/>
  <path d="m190.5 445.69c9.1406 0 16.875 7.0312 16.875 16.172s-7.7344 16.875-16.875 16.875c-8.4375 0-16.172-7.7344-16.172-16.875 0-8.4375 7.7344-16.172 16.172-16.172z"/>
  <path d="m206.68 539.9c0 21.562-32.344 21.562-32.344 0s32.344-21.562 32.344 0"/>
  <path d="m206.68 618.61c0 21.562-32.344 21.562-32.344 0 0-21.516 32.344-21.516 32.344 0"/>
  <path d="m206.68 696.66c0 21.562-32.344 21.562-32.344 0s32.344-21.562 32.344 0"/>
  <path d="m190.5 757.82c9.1406 0 16.875 7.7344 16.875 16.875s-7.7344 16.172-16.875 16.172c-8.4375 0-16.172-7.0312-16.172-16.172s7.7344-16.875 16.172-16.875z"/>
  <path d="m206.68 852.71c0 21.562-32.344 21.562-32.344 0 0-21.516 32.344-21.516 32.344 0"/>
  <path d="m206.68 930.74c0 21.562-32.344 21.562-32.344 0s32.344-21.562 32.344 0"/>
  <path d="m206.68 1008.8c0 21.562-32.344 21.562-32.344 0s32.344-21.562 32.344 0"/>
  <path d="m206.68 1086.8c0 21.562-32.344 21.562-32.344 0 0-21.516 32.344-21.516 32.344 0"/>
  <path d="m932.86 404.21h-71.719c-9.1406 0-16.875-7.0312-16.875-16.172s7.7344-16.875 16.875-16.875h71.719c9.1406 0 16.172 7.7344 16.172 16.875s-7.0312 16.172-16.172 16.172zm-179.26 0h-243.24c-9.1406 0-16.172-7.0312-16.172-16.172s7.0312-16.875 16.172-16.875h243.24c9.1406 0 16.172 7.7344 16.172 16.875s-7.0312 16.172-16.172 16.172z"/>
  <path d="m932.86 478.74h-260.11c-8.4375 0-16.172-7.7344-16.172-16.875s7.7344-16.172 16.172-16.172h260.11c9.1406 0 16.172 7.0312 16.172 16.172s-7.0312 16.875-16.172 16.875zm-366.94 0h-55.547c-9.1406 0-16.172-7.7344-16.172-16.875s7.0312-16.172 16.172-16.172h55.547c9.1406 0 16.172 7.0312 16.172 16.172s-7.0312 16.875-16.172 16.875z"/>
  <path d="m932.86 556.78h-69.609c-9.1406 0-16.172-7.7344-16.172-16.875 0-8.4375 7.0312-16.172 16.172-16.172h69.609c9.1406 0 16.172 7.7344 16.172 16.172 0 9.1406-7.0312 16.875-16.172 16.875zm-179.26 0h-243.24c-9.1406 0-16.172-7.7344-16.172-16.875 0-8.4375 7.0312-16.172 16.172-16.172h243.24c9.1406 0 16.172 7.7344 16.172 16.172 0 9.1406-7.0312 16.875-16.172 16.875z"/>
  <path d="m932.86 634.78h-260.11c-8.4375 0-16.172-7.7344-16.172-16.172 0-9.1406 7.7344-16.875 16.172-16.875h260.11c9.1406 0 16.172 7.7344 16.172 16.875 0 8.4375-7.0312 16.172-16.172 16.172zm-352.92 0h-69.609c-9.1406 0-16.172-7.7344-16.172-16.172 0-9.1406 7.0312-16.875 16.172-16.875h69.609c9.1406 0 16.875 7.7344 16.875 16.875 0 8.4375-7.7344 16.172-16.875 16.172z"/>
  <path d="m932.86 712.82h-84.375c-8.4375 0-16.172-7.0312-16.172-16.172s7.7344-16.875 16.172-16.875h84.375c9.1406 0 16.172 7.7344 16.172 16.875s-7.0312 16.172-16.172 16.172zm-174.32 0h-248.16c-9.1406 0-16.172-7.0312-16.172-16.172s7.0312-16.875 16.172-16.875h248.16c9.1406 0 16.172 7.7344 16.172 16.875s-7.0312 16.172-16.172 16.172z"/>
  <path d="m932.86 790.87h-286.82c-9.1406 0-16.172-7.0312-16.172-16.172s7.0312-16.875 16.172-16.875h286.82c9.1406 0 16.172 7.7344 16.172 16.875s-7.0312 16.172-16.172 16.172zm-364.82 0h-57.656c-9.1406 0-16.172-7.0312-16.172-16.172s7.0312-16.875 16.172-16.875h57.656c9.1406 0 16.172 7.7344 16.172 16.875s-7.0312 16.172-16.172 16.172z"/>
  <path d="m932.86 868.87h-96.328c-9.1406 0-16.172-7.0312-16.172-16.172s7.0312-16.172 16.172-16.172h96.328c9.1406 0 16.172 7.0312 16.172 16.172s-7.0312 16.172-16.172 16.172zm-191.21 0h-231.28c-9.1406 0-16.172-7.0312-16.172-16.172s7.0312-16.172 16.172-16.172h231.28c9.1406 0 16.172 7.0312 16.172 16.172s-7.0312 16.172-16.172 16.172z"/>
  <path d="m932.86 946.92h-255.19c-9.1406 0-16.172-7.0312-16.172-16.172s7.0312-16.172 16.172-16.172h255.19c9.1406 0 16.172 7.0312 16.172 16.172s-7.0312 16.172-16.172 16.172zm-348 0h-74.531c-9.1406 0-16.172-7.0312-16.172-16.172s7.0312-16.172 16.172-16.172h74.531c9.1406 0 16.875 7.0312 16.875 16.172s-7.7344 16.172-16.875 16.172z"/>
  <path d="m932.86 1025h-79.453c-9.1406 0-16.172-7.0312-16.172-16.172s7.0312-16.172 16.172-16.172h79.453c9.1406 0 16.172 7.0312 16.172 16.172s-7.0312 16.172-16.172 16.172zm-174.32 0h-248.16c-9.1406 0-16.172-7.0312-16.172-16.172s7.0312-16.172 16.172-16.172h248.16c9.1406 0 16.172 7.0312 16.172 16.172s-7.0312 16.172-16.172 16.172z"/>
  <path d="m444.98 404.21h-63.984c-9.1406 0-16.172-7.0312-16.172-16.172s7.0312-16.875 16.172-16.875h63.984c8.4375 0 16.172 7.7344 16.172 16.875s-7.7344 16.172-16.172 16.172zm-129.32 0h-63.984c-9.1406 0-16.172-7.0312-16.172-16.172s7.0312-16.875 16.172-16.875h63.984c8.4375 0 16.172 7.7344 16.172 16.875s-7.7344 16.172-16.172 16.172z"/>
  <path d="m444.98 478.74h-63.984c-9.1406 0-16.172-7.7344-16.172-16.875s7.0312-16.172 16.172-16.172h63.984c8.4375 0 16.172 7.0312 16.172 16.172s-7.7344 16.875-16.172 16.875zm-129.32 0h-63.984c-9.1406 0-16.172-7.7344-16.172-16.875s7.0312-16.172 16.172-16.172h63.984c8.4375 0 16.172 7.0312 16.172 16.172s-7.7344 16.875-16.172 16.875z"/>
  <path d="m444.98 556.78h-63.984c-9.1406 0-16.172-7.7344-16.172-16.875 0-8.4375 7.0312-16.172 16.172-16.172h63.984c8.4375 0 16.172 7.7344 16.172 16.172 0 9.1406-7.7344 16.875-16.172 16.875zm-129.32 0h-63.984c-9.1406 0-16.172-7.7344-16.172-16.875 0-8.4375 7.0312-16.172 16.172-16.172h63.984c8.4375 0 16.172 7.7344 16.172 16.172 0 9.1406-7.7344 16.875-16.172 16.875z"/>
  <path d="m444.98 634.78h-63.984c-9.1406 0-16.172-7.7344-16.172-16.172 0-9.1406 7.0312-16.875 16.172-16.875h63.984c8.4375 0 16.172 7.7344 16.172 16.875 0 8.4375-7.7344 16.172-16.172 16.172zm-129.32 0h-63.984c-9.1406 0-16.172-7.7344-16.172-16.172 0-9.1406 7.0312-16.875 16.172-16.875h63.984c8.4375 0 16.172 7.7344 16.172 16.875 0 8.4375-7.7344 16.172-16.172 16.172z"/>
  <path d="m444.98 712.82h-63.984c-9.1406 0-16.172-7.0312-16.172-16.172s7.0312-16.875 16.172-16.875h63.984c8.4375 0 16.172 7.7344 16.172 16.875s-7.7344 16.172-16.172 16.172zm-129.32 0h-63.984c-9.1406 0-16.172-7.0312-16.172-16.172s7.0312-16.875 16.172-16.875h63.984c8.4375 0 16.172 7.7344 16.172 16.875s-7.7344 16.172-16.172 16.172z"/>
  <path d="m444.98 790.87h-63.984c-9.1406 0-16.172-7.0312-16.172-16.172s7.0312-16.875 16.172-16.875h63.984c8.4375 0 16.172 7.7344 16.172 16.875s-7.7344 16.172-16.172 16.172zm-129.32 0h-63.984c-9.1406 0-16.172-7.0312-16.172-16.172s7.0312-16.875 16.172-16.875h63.984c8.4375 0 16.172 7.7344 16.172 16.875s-7.7344 16.172-16.172 16.172z"/>
  <path d="m444.98 868.87h-63.984c-9.1406 0-16.172-7.0312-16.172-16.172s7.0312-16.172 16.172-16.172h63.984c8.4375 0 16.172 7.0312 16.172 16.172s-7.7344 16.172-16.172 16.172zm-129.32 0h-63.984c-9.1406 0-16.172-7.0312-16.172-16.172s7.0312-16.172 16.172-16.172h63.984c8.4375 0 16.172 7.0312 16.172 16.172s-7.7344 16.172-16.172 16.172z"/>
  <path d="m444.98 946.92h-63.984c-9.1406 0-16.172-7.0312-16.172-16.172s7.0312-16.172 16.172-16.172h63.984c8.4375 0 16.172 7.0312 16.172 16.172s-7.7344 16.172-16.172 16.172zm-129.32 0h-63.984c-9.1406 0-16.172-7.0312-16.172-16.172s7.0312-16.172 16.172-16.172h63.984c8.4375 0 16.172 7.0312 16.172 16.172s-7.7344 16.172-16.172 16.172z"/>
  <path d="m444.98 1025h-63.984c-9.1406 0-16.172-7.0312-16.172-16.172s7.0312-16.172 16.172-16.172h63.984c8.4375 0 16.172 7.0312 16.172 16.172s-7.7344 16.172-16.172 16.172zm-129.32 0h-63.984c-9.1406 0-16.172-7.0312-16.172-16.172s7.0312-16.172 16.172-16.172h63.984c8.4375 0 16.172 7.0312 16.172 16.172s-7.7344 16.172-16.172 16.172z"/>
  <path d="m444.98 1103.7h-63.984c-9.1406 0-16.172-7.7344-16.172-16.875s7.0312-16.172 16.172-16.172h63.984c8.4375 0 16.172 7.0312 16.172 16.172s-7.7344 16.875-16.172 16.875zm-129.32 0h-63.984c-9.1406 0-16.172-7.7344-16.172-16.875s7.0312-16.172 16.172-16.172h63.984c8.4375 0 16.172 7.0312 16.172 16.172s-7.7344 16.875-16.172 16.875z"/>
  <path d="m932.86 1103.7h-274.18c-9.1406 0-16.875-7.7344-16.875-16.875s7.7344-16.172 16.875-16.172h274.18c9.1406 0 16.172 7.0312 16.172 16.172s-7.0312 16.875-16.172 16.875zm-362.02 0h-60.469c-9.1406 0-16.172-7.7344-16.172-16.875s7.0312-16.172 16.172-16.172h60.469c9.1406 0 16.172 7.0312 16.172 16.172s-7.0312 16.875-16.172 16.875z"/>
  <path d="m970.13 257.29c-4.2188 0-8.4375-1.4062-11.953-4.9219l-66.797-66.797c-6.3281-6.3281-6.3281-16.875 0-23.203l66.797-66.797c6.3281-6.3281 16.875-6.3281 23.203 0s6.3281 16.875 0 23.203l-54.844 55.547 54.844 55.547c6.3281 6.3281 6.3281 16.172 0 23.203-2.8125 2.8125-7.0312 4.2188-11.25 4.2188z"/>
  <path d="m1029.9 257.29c-4.2188 0-8.4375-1.4062-11.953-4.9219-6.3281-6.3281-6.3281-16.875 0-23.203l55.547-55.547-55.547-55.547c-6.3281-6.3281-6.3281-16.172 0-23.203 7.0312-6.3281 16.875-6.3281 23.203 0l67.5 67.5c6.3281 6.3281 6.3281 16.875 0 23.203l-67.5 66.797c-2.8125 3.5156-7.0312 4.9219-11.25 4.9219z"/>
  <path d="m999.66 157.45c9.1406 0 16.875 7.7344 16.875 16.875 0 8.4375-7.7344 16.172-16.875 16.172s-16.172-7.7344-16.172-16.172c0-9.1406 7.7344-16.875 16.172-16.875z"/>
 </g>
</svg>
