<?xml version="1.0" encoding="UTF-8"?>
<svg width="1200pt" height="1200pt" version="1.1" viewBox="0 0 1200 1200" xmlns="http://www.w3.org/2000/svg">
 <path d="m632.76 707.63c-6.9844 7.0312-18.375 7.0781-25.406 0.09375s-7.0781-18.375-0.09375-25.406l1.9219-1.9219c6.9844-7.0312 18.375-7.0781 25.406-0.09375s7.0781 18.375 0.09375 25.406zm280.92-652.87 22.031 71.625c1.3125 4.3125 3.4688 7.9688 6.3281 10.781 2.9062 2.9062 6.5625 5.0625 10.875 6.375l71.625 22.031c9.4688 2.9062 14.766 12.938 11.859 22.406-1.8281 5.9062-6.375 10.172-11.859 11.859l-72.328 22.219c-3.9844 1.3125-7.4062 3.4219-10.125 6.1406-2.9062 2.9531-5.1094 6.6562-6.375 10.875l-22.031 71.625c-2.9062 9.4688-12.938 14.766-22.406 11.859-5.9062-1.8281-10.172-6.375-11.859-11.859l-22.219-72.328c-1.3125-3.9844-3.4219-7.4062-6.1406-10.172-2.8594-2.8594-6.5625-5.0625-10.875-6.375l-71.625-21.984c-9.4688-2.9062-14.766-12.938-11.859-22.406 1.8281-5.9062 6.375-10.172 11.859-11.859l71.625-22.031c4.3125-1.3125 8.0156-3.4688 10.828-6.3281 2.9062-2.9531 5.1094-6.6562 6.375-10.781l22.031-71.719c2.9062-9.4688 12.938-14.766 22.406-11.859 5.9062 1.8281 10.172 6.375 11.859 11.859zm-12.281 82.172-4.875-15.797-4.875 15.797c-3.1406 10.125-8.2969 18.797-15.234 25.688-7.0312 6.9375-15.75 12.141-25.734 15.234l-15.797 4.875 15.797 4.8281c9.9844 3.0938 18.703 8.2969 25.641 15.234 6.7969 6.7969 11.859 15.141 15 24.797l5.1562 16.734 4.875-15.797c3.0938-10.078 8.2969-18.797 15.234-25.734 6.7969-6.7031 15.141-11.812 24.797-14.906l16.734-5.1562-15.797-4.875c-9.9844-3.0938-18.656-8.25-25.641-15.234-7.0312-7.0781-12.234-15.75-15.328-25.734zm-512.63-57.75 42.656 138.84c3.375 10.969 9 20.438 16.547 27.938 7.5 7.5 16.969 13.172 27.938 16.547l138.84 42.656c9.4688 2.9062 14.766 12.938 11.859 22.406-1.8281 5.9062-6.375 10.172-11.859 11.859l-138.84 42.656c-11.062 3.375-20.484 9-27.938 16.453-7.5469 7.5-13.172 16.969-16.547 27.984l-42.656 138.84c-2.9062 9.4688-12.938 14.766-22.406 11.859-5.9062-1.8281-10.172-6.375-11.859-11.859l-42.656-138.84c-3.375-11.016-9-20.484-16.453-27.938-7.5-7.5469-16.969-13.172-27.984-16.547l-138.84-42.656c-9.4688-2.9062-14.766-12.938-11.859-22.406 1.8281-5.9062 6.375-10.172 11.859-11.859l138.84-42.656c10.969-3.375 20.438-9 27.938-16.547 7.5469-7.5469 13.172-16.969 16.547-27.938l42.656-138.84c2.9062-9.4688 12.938-14.766 22.406-11.859 5.9062 1.8281 10.172 6.375 11.859 11.859zm8.3438 149.39-25.5-83.016-25.5 83.016c-5.1562 16.828-13.828 31.312-25.406 42.844-11.531 11.531-26.062 20.203-42.844 25.359l-83.016 25.5 83.016 25.5c16.688 5.1094 31.172 13.781 42.75 25.359 11.672 11.672 20.344 26.156 25.453 42.844l25.5 83.016 25.5-83.016c5.1094-16.688 13.781-31.172 25.359-42.75 11.672-11.672 26.156-20.344 42.844-25.453l83.016-25.5-83.016-25.5c-16.828-5.1562-31.312-13.828-42.844-25.359-11.578-11.578-20.25-26.062-25.406-42.844zm274.26 410.06c-2.9062 9.4688-12.938 14.766-22.406 11.859s-14.766-12.938-11.859-22.406l60.375-196.55c2.9062-9.4688 12.938-14.766 22.406-11.859 5.9062 1.8281 10.172 6.375 11.859 11.859l63.047 205.26c5.4375 17.672 14.484 32.859 26.484 44.859 12.094 12.094 27.234 21.141 44.953 26.578l205.26 63.047c9.4688 2.9062 14.766 12.938 11.859 22.406-1.8281 5.9062-6.375 10.172-11.859 11.859l-205.26 63.047c-17.625 5.3906-32.812 14.484-44.859 26.531-12.094 12.094-21.141 27.234-26.578 44.859l-63.047 205.26c-2.9062 9.4688-12.938 14.766-22.406 11.859-5.9062-1.8281-10.172-6.375-11.859-11.859l-63.047-205.26c-5.4375-17.672-14.484-32.859-26.531-44.906s-27.234-21.094-44.906-26.531l-205.26-63.047c-9.4688-2.9062-14.766-12.938-11.859-22.406 1.8281-5.9062 6.375-10.172 11.859-11.859l197.76-60.75c9.4688-2.9062 19.5 2.3906 22.406 11.859s-2.3906 19.5-11.859 22.406l-141.94 43.594 149.44 45.891c23.391 7.1719 43.547 19.266 59.719 35.391 16.219 16.219 28.266 36.375 35.484 59.766l45.891 149.44 45.891-149.44c7.2188-23.484 19.312-43.688 35.391-59.766 16.125-16.125 36.328-28.172 59.766-35.391l149.44-45.891-149.44-45.891c-23.344-7.1719-43.547-19.219-59.672-35.391-16.266-16.266-28.312-36.469-35.484-59.812l-45.891-149.44-43.219 140.72z" fill="#f9ead6"/>
</svg>
