<?xml version="1.0" encoding="UTF-8"?>
<svg width="1200pt" height="1200pt" version="1.1" viewBox="0 0 1200 1200" xmlns="http://www.w3.org/2000/svg">
 <path d="m967.66 90c-6.0352 0.003906-11.93 1.8203-16.922 5.2148-4.9883 3.3945-8.8438 8.2148-11.059 13.828-22.242 56.387-57.734 106.77-103.57 146.98-6.5234 5.7227-10.254 13.977-10.246 22.652 0.007813 8.6758 3.7578 16.922 10.289 22.633 46.016 40.211 81.641 90.641 103.98 147.12 2.9805 7.5273 8.8672 13.543 16.332 16.68s15.879 3.1328 23.34-0.011719c7.4648-3.1406 13.348-9.1602 16.32-16.691 22.238-56.387 57.73-106.77 103.57-146.98 6.5195-5.7227 10.254-13.98 10.242-22.652-0.007812-8.6758-3.7578-16.926-10.289-22.633-46.004-40.203-81.641-90.641-103.98-147.12-3.8633-9.7617-12.539-16.809-22.887-18.586-1.7031-0.14844-3.418-0.14844-5.1211 0zm-436.72 3.1836c-2.6406-0.35156-5.3203-0.35156-7.9609 0-107.16 16.574-206.26 66.773-283.04 143.32-0.011719 0.007813-0.023438 0.015625-0.035157 0.023438l-0.011718 0.011718h0.011718c-95.941 95.941-149.86 226.11-149.86 361.8s53.922 265.85 149.86 361.8c95.953 95.941 226.11 149.86 361.8 149.86 135.7 0 265.86-53.922 361.8-149.86l-0.003906-0.003906c0.007812-0.007813 0.015625-0.011719 0.023437-0.019531 76.648-76.809 126.91-176 143.49-283.23v-0.003906c1.3906-8.9844-1.3555-18.113-7.4648-24.84-6.1133-6.7305-14.938-10.336-24.012-9.8125-9.0781 0.52344-17.43 5.1172-22.727 12.504-11.387 15.879-24.035 30.816-37.824 44.66-68.219 68.195-160.69 106.49-257.14 106.48-96.465 0-188.94-38.312-257.14-106.53-68.219-68.207-106.53-160.68-106.54-257.14 0-96.453 38.289-188.93 106.48-257.14 13.922-13.902 28.961-26.641 44.957-38.121h-0.003906c6.6211-4.7539 11.031-11.992 12.219-20.055 1.1914-8.0625-0.94141-16.266-5.9062-22.73-4.9688-6.4648-12.344-10.637-20.441-11.566zm-110.26 92.062c-56.254 73.531-87.238 163.96-87.227 257.55 0.011719 112.4 44.684 220.23 124.16 299.71 79.48 79.48 187.31 124.15 299.71 124.16 93.496 0 183.82-30.918 257.3-87.059-22.375 51.348-54.184 98.445-94.234 138.57-84.668 84.668-199.47 132.22-319.21 132.22-119.75 0-234.55-47.562-319.23-132.24-84.68-84.668-132.23-199.48-132.23-319.23 0-119.74 47.551-234.55 132.23-319.23 40.156-40.145 87.309-72.02 138.73-94.453zm547.04 3.9805c18.816 32.637 41.793 62.77 68.367 89.707-26.426 26.879-49.277 56.934-67.992 89.469-18.828-32.637-41.805-62.77-68.379-89.707 26.426-26.879 49.277-56.934 68.004-89.469zm-276.85 193.69c-6.1836-0.11328-12.254 1.6797-17.383 5.1406-5.1289 3.457-9.0703 8.4102-11.281 14.188-14.438 37.711-37.438 71.324-67.07 98.102v0.003906c-6.3203 5.7109-9.9219 13.836-9.9141 22.355 0.007813 8.5195 3.6289 16.637 9.957 22.336 29.734 26.777 52.84 60.438 67.332 98.203v0.003906c2.9297 7.6211 8.8281 13.73 16.348 16.918s16.012 3.1836 23.527-0.011719c7.5156-3.1914 13.41-9.3047 16.332-16.93 14.434-37.711 37.438-71.336 67.059-98.113 6.3203-5.7148 9.9258-13.836 9.918-22.355-0.003907-8.5195-3.6211-16.637-9.9531-22.34-29.734-26.777-52.84-60.426-67.332-98.195h0.003907c-3.7969-9.8906-12.516-17.059-22.957-18.871-1.5156-0.11328-3.0352-0.11328-4.5508 0zm0 96.852c9.668 15.266 20.625 29.668 32.762 43.055-12.047 13.332-22.934 27.676-32.535 42.875-9.668-15.266-20.625-29.68-32.762-43.055 12.047-13.332 22.934-27.676 32.535-42.875z" fill="#f9ead6"/>
</svg>
